<svg width="32" height="32" viewBox="0 0 32 32" fill="none" xmlns="http://www.w3.org/2000/svg">
<mask id="path-1-inside-1_1352_3534" fill="white">
<path fill-rule="evenodd" clip-rule="evenodd" d="M15.6665 28.7937L7.75671 20.884L2.93853 16.0658L2.80696 15.9342L15.5349 3.2063L20.4846 8.15604L16.1399 12.5008L26.2524 12.5014L29.1924 16.0337L26.4047 19.4981L16.2712 19.499L20.6162 23.844L15.6665 28.7937Z"/>
</mask>
<path d="M7.75671 20.884L-2.85936 31.5L-2.85934 31.5L7.75671 20.884ZM15.6665 28.7937L5.0504 39.4098L15.6665 50.0258L26.2825 39.4098L15.6665 28.7937ZM2.93853 16.0658L13.5546 5.44974L13.5542 5.44938L2.93853 16.0658ZM2.80696 15.9342L-7.80909 5.31816L-18.4255 15.9346L-7.80875 26.5506L2.80696 15.9342ZM15.5349 3.2063L26.1509 -7.40976L15.5349 -18.0258L4.91883 -7.40976L15.5349 3.2063ZM20.4846 8.15604L31.1007 18.7721L41.7167 8.15605L31.1007 -2.46001L20.4846 8.15604ZM16.1399 12.5008L5.5238 1.88476L-20.1036 27.5122L16.139 27.5142L16.1399 12.5008ZM26.2524 12.5014L37.7918 2.89701L33.2901 -2.51162L26.2532 -2.512L26.2524 12.5014ZM29.1924 16.0337L40.8892 25.4457L48.5919 15.8731L40.7318 6.42937L29.1924 16.0337ZM26.4047 19.4981L26.406 34.5115L33.5948 34.5109L38.1016 28.9101L26.4047 19.4981ZM16.2712 19.499L16.27 4.48563L-19.9712 4.48868L5.65519 30.1151L16.2712 19.499ZM20.6162 23.844L31.2323 34.46L41.8483 23.844L31.2323 13.2279L20.6162 23.844ZM-2.85934 31.5L5.0504 39.4098L26.2825 18.1776L18.3728 10.2679L-2.85934 31.5ZM-7.67753 26.6818L-2.85936 31.5L18.3728 10.2679L13.5546 5.44974L-7.67753 26.6818ZM-7.80875 26.5506L-7.67718 26.6822L13.5542 5.44938L13.4227 5.31782L-7.80875 26.5506ZM4.91883 -7.40976L-7.80909 5.31816L13.423 26.5503L26.1509 13.8224L4.91883 -7.40976ZM31.1007 -2.46001L26.1509 -7.40976L4.91883 13.8223L9.86858 18.7721L31.1007 -2.46001ZM26.7559 23.1169L31.1007 18.7721L9.86858 -2.46001L5.5238 1.88476L26.7559 23.1169ZM16.139 27.5142L26.2515 27.5147L26.2532 -2.512L16.1407 -2.51255L16.139 27.5142ZM14.713 22.1057L17.653 25.6381L40.7318 6.42937L37.7918 2.89701L14.713 22.1057ZM17.4955 6.62177L14.7079 10.0862L38.1016 28.9101L40.8892 25.4457L17.4955 6.62177ZM26.4034 4.48478L16.27 4.48563L16.2725 34.5124L26.406 34.5115L26.4034 4.48478ZM31.2323 13.2279L26.8873 8.88295L5.65519 30.1151L10.0001 34.46L31.2323 13.2279ZM26.2825 39.4098L31.2323 34.46L10.0001 13.2279L5.0504 18.1776L26.2825 39.4098Z" fill="white" mask="url(#path-1-inside-1_1352_3534)"/>
</svg>
