<svg width="32" height="32" viewBox="0 0 32 32" fill="none" xmlns="http://www.w3.org/2000/svg">
<mask id="path-1-inside-1_1352_3535" fill="white">
<path fill-rule="evenodd" clip-rule="evenodd" d="M16.3326 28.7937L24.2423 20.884L29.0605 16.0658L29.1921 15.9342L16.4641 3.2063L11.5144 8.15604L15.8592 12.5008L5.74666 12.5014L2.80664 16.0337L5.59431 19.4981L15.7278 19.499L11.3828 23.844L16.3326 28.7937Z"/>
</mask>
<path d="M24.2423 20.884L34.8584 31.5L34.8584 31.5L24.2423 20.884ZM16.3326 28.7937L26.9486 39.4098L16.3326 50.0258L5.71652 39.4098L16.3326 28.7937ZM29.0605 16.0658L18.4444 5.44974L18.4448 5.44938L29.0605 16.0658ZM29.1921 15.9342L39.8081 5.31816L50.4245 15.9346L39.8078 26.5506L29.1921 15.9342ZM16.4641 3.2063L5.84809 -7.40976L16.4641 -18.0258L27.0802 -7.40976L16.4641 3.2063ZM11.5144 8.15604L0.898342 18.7721L-9.71771 8.15605L0.898341 -2.46001L11.5144 8.15604ZM15.8592 12.5008L26.4752 1.88476L52.1027 27.5122L15.86 27.5142L15.8592 12.5008ZM5.74666 12.5014L-5.79273 2.89701L-1.29107 -2.51162L5.74585 -2.512L5.74666 12.5014ZM2.80664 16.0337L-8.89021 25.4457L-16.5929 15.8731L-8.73275 6.42937L2.80664 16.0337ZM5.59431 19.4981L5.59305 34.5115L-1.59581 34.5109L-6.10254 28.9101L5.59431 19.4981ZM15.7278 19.499L15.729 4.48563L51.9702 4.48868L26.3438 30.1151L15.7278 19.499ZM11.3828 23.844L0.766772 34.46L-9.84928 23.844L0.766771 13.2279L11.3828 23.844ZM34.8584 31.5L26.9486 39.4098L5.71653 18.1776L13.6263 10.2679L34.8584 31.5ZM39.6766 26.6818L34.8584 31.5L13.6263 10.2679L18.4444 5.44974L39.6766 26.6818ZM39.8078 26.5506L39.6762 26.6822L18.4448 5.44938L18.5764 5.31782L39.8078 26.5506ZM27.0802 -7.40976L39.8081 5.31816L18.576 26.5503L5.84809 13.8224L27.0802 -7.40976ZM0.898341 -2.46001L5.84809 -7.40976L27.0802 13.8223L22.1304 18.7721L0.898341 -2.46001ZM5.24312 23.1169L0.898342 18.7721L22.1304 -2.46001L26.4752 1.88476L5.24312 23.1169ZM15.86 27.5142L5.74748 27.5147L5.74585 -2.512L15.8584 -2.51255L15.86 27.5142ZM17.2861 22.1057L14.346 25.6381L-8.73275 6.42937L-5.79273 2.89701L17.2861 22.1057ZM14.5035 6.62177L17.2912 10.0862L-6.10254 28.9101L-8.89021 25.4457L14.5035 6.62177ZM5.59557 4.48478L15.729 4.48563L15.7265 34.5124L5.59305 34.5115L5.59557 4.48478ZM0.766771 13.2279L5.11172 8.88295L26.3438 30.1151L21.9989 34.46L0.766771 13.2279ZM5.71652 39.4098L0.766772 34.46L21.9989 13.2279L26.9486 18.1776L5.71652 39.4098Z" fill="white" mask="url(#path-1-inside-1_1352_3535)"/>
</svg>
