<svg width="64" height="64" viewBox="0 0 64 64" fill="none" xmlns="http://www.w3.org/2000/svg">
<path d="M18 24.9575V37.3325C18 39.3745 19.093 39.8165 19.093 39.8165L30.667 48.9155C32.489 50.3475 32 47.3325 32 47.3325V35.9575L18 24.9575Z" fill="#662113"/>
<path d="M46.0008 24.9575V37.3325C46.0008 39.3745 44.9378 39.8165 44.9378 39.8165C44.9378 39.8165 35.1708 47.4835 33.3498 48.9155C31.5268 50.3475 32.0008 47.3325 32.0008 47.3325V35.9575L46.0008 24.9575Z" fill="#C1694F"/>
<path d="M33.2895 14.4575C32.5365 13.8475 31.3015 13.8475 30.5475 14.4575L18.5655 23.9865C17.8115 24.5965 17.8115 25.5935 18.5655 26.2025L30.5885 35.8485C31.3425 36.4575 32.5775 36.4575 33.3315 35.8485L45.4355 26.1185C46.1895 25.5095 46.1895 24.5125 45.4355 23.9025L33.2895 14.4575Z" fill="#D99E82"/>
<path d="M32 49.7075C31.448 49.7075 31 49.2255 31 48.6295V35.7025C31 35.1065 31.448 34.6245 32 34.6245C32.553 34.6245 33 35.1065 33 35.7025V48.6295C33 49.2255 32.553 49.7075 32 49.7075Z" fill="#D99E82"/>
<path d="M42.0005 32.7936C42.0005 33.8976 42.1045 34.4396 41.0005 35.2356L38.5315 37.1136C37.4275 37.9106 37.0005 37.2266 37.0005 36.1216V33.1606C37.0005 32.9676 36.9745 32.7606 36.7225 32.5526C34.1445 30.4276 24.1345 22.4766 22.3105 21.0086L26.9355 17.3306C28.2015 18.2566 37.6885 25.5826 41.6575 28.7076C41.8545 28.8636 42.0005 29.0356 42.0005 29.2236V32.7936Z" fill="#99AAB5"/>
<path d="M41.6565 28.7076C37.6885 25.5826 28.2015 18.2566 26.9355 17.3306L25.2145 18.6986L22.3105 21.0086C24.1355 22.4766 34.1445 30.4276 36.7225 32.5526C36.8735 32.6776 36.9395 32.8026 36.9705 32.9236L41.9035 28.9576C41.8435 28.8706 41.7575 28.7866 41.6565 28.7076Z" fill="#CCD6DD"/>
<path d="M42.0013 32.7936V29.2236C42.0013 29.0356 41.8553 28.8646 41.6573 28.7076C37.6893 25.5826 28.2023 18.2566 26.9363 17.3306L24.8633 18.9796C28.2563 21.6486 37.3443 28.6606 39.7233 30.5526C39.9793 30.7566 40.0013 30.9676 40.0013 31.1606V35.9966L41.0013 35.2356C42.1053 34.4386 42.0013 33.8976 42.0013 32.7936V32.7936Z" fill="#CCD6DD"/>
<path d="M41.6573 28.7076C37.6893 25.5826 28.2023 18.2566 26.9363 17.3306L24.8633 18.9796C28.2563 21.6486 37.3443 28.6606 39.7233 30.5526C39.7603 30.5816 39.7833 30.6116 39.8103 30.6406L41.9043 28.9576C41.8443 28.8706 41.7583 28.7866 41.6573 28.7076Z" fill="#E1E8ED"/>
</svg>
