<svg width="128" height="128" viewBox="0 0 128 128" fill="none" xmlns="http://www.w3.org/2000/svg">
<path d="M52.1288 92.4843C54.6905 91.811 56.9776 90.7769 58.9686 89.3666C60.9438 87.9688 62.5467 86.1574 63.7239 83.9225C64.89 81.7155 65.4739 79.0902 65.4739 76.0417C65.4739 72.2805 64.58 69.0729 62.754 66.3918C60.937 63.7287 58.1973 61.8561 54.4966 60.7928C57.2143 59.5076 59.2475 57.8523 60.6317 55.8346C62.005 53.8137 62.6916 51.2856 62.6916 48.2594C62.6916 45.4617 62.2324 43.0952 61.3159 41.2056C60.3773 39.2874 59.0667 37.7646 57.3924 36.6197C55.6914 35.475 53.678 34.6401 51.3196 34.1396C48.9475 33.6258 46.3527 33.3769 43.4767 33.3769H15.1328V93.4961H44.2726C46.9658 93.4964 49.5967 93.1576 52.1288 92.4843ZM28.3708 43.6177H40.755C41.9253 43.6177 43.069 43.7011 44.1593 43.9143C45.2695 44.1048 46.2261 44.4582 47.0732 44.9699C47.927 45.4613 48.6025 46.1635 49.1129 47.0608C49.606 47.9582 49.8511 49.1142 49.8511 50.513C49.8511 53.0321 49.1129 54.8693 47.5904 55.9804C46.0523 57.1095 44.1103 57.6658 41.7652 57.6658H28.3711V43.6177H28.3708ZM28.3708 83.2569V66.7017H42.7612C45.6105 66.7017 47.9267 67.3571 49.6634 68.6745C51.3978 70.0112 52.2694 72.2104 52.2694 75.3092C52.2694 76.8897 52.0131 78.1985 51.4782 79.206C50.9454 80.2224 50.2119 81.0217 49.3267 81.6047C48.4415 82.211 47.3915 82.6212 46.2078 82.88C45.0418 83.1409 43.8022 83.2566 42.4959 83.2566H28.3708V83.2569Z" fill="black"/>
<path d="M75.3587 88.294C77.3048 90.3161 79.6188 91.8678 82.3878 92.9745C85.1589 94.068 88.2443 94.6231 91.6731 94.6231C96.5932 94.6231 100.816 93.4961 104.278 91.2345C107.78 88.9828 110.348 85.2421 112.04 80.0018H101.511C101.103 81.3494 100.049 82.6469 98.3165 83.8607C96.5687 85.0758 94.4843 85.6855 92.0722 85.6855C88.719 85.6855 86.131 84.8062 84.341 83.0571C82.5438 81.3084 81.3803 78.0502 81.3803 74.6092H112.792C113.017 71.2318 112.743 68.0058 111.96 64.918C111.171 61.8248 109.909 59.067 108.135 56.6559C106.36 54.2404 104.102 52.3107 101.346 50.8872C98.5818 49.4438 95.3558 48.7348 91.6731 48.7348C88.338 48.7348 85.3261 49.3277 82.595 50.5062C79.864 51.6886 77.5189 53.3083 75.5415 55.3605C73.5684 57.4015 72.0682 59.835 70.9822 62.6548C69.9189 65.465 69.375 68.5057 69.375 71.7608C69.375 75.127 69.8991 78.2335 70.9379 81.0397C71.9879 83.8611 73.4614 86.2623 75.3587 88.294ZM81.9264 64.2046C82.2317 63.118 82.7579 62.1016 83.5293 61.1381C84.305 60.1906 85.3196 59.3857 86.5567 58.7394C87.8229 58.0841 89.4035 57.7629 91.3138 57.7629C94.25 57.7629 96.6578 58.6134 98.0779 60.1862C99.5046 61.7711 100.548 64.025 100.833 67.0738H81.38C81.4358 66.2245 81.6189 65.2636 81.9264 64.2046Z" fill="black"/>
<path d="M103.307 37.4099H78.9375V43.3425H103.307V37.4099Z" fill="black"/>
</svg>
