<svg width="64" height="64" viewBox="0 0 64 64" fill="none" xmlns="http://www.w3.org/2000/svg">
<path d="M18 19C15.791 19 14 20.791 14 23V41C14 43.209 15.791 45 18 45H46C48.209 45 50 43.209 50 41V23C50 23 50 19 46 19H18Z" fill="#FFAC33"/>
<path d="M14 24H50V29H14V24Z" fill="#292F33"/>
<path d="M18 33H46V39H18V33Z" fill="#F4F7F9"/>
<path d="M32.9997 38C31.2967 38 30.6587 36.79 30.5307 36.199C29.9837 36.24 29.4507 36.502 28.7257 36.963C27.9607 37.449 27.0937 38 25.9997 38C24.8027 38 24.0757 37.325 23.9997 36C23.9967 35.944 24.0377 35.812 24.0207 35.812C22.1627 35.812 20.8187 37.573 20.8057 37.591C20.6107 37.858 20.3067 38 19.9997 38C19.7937 38 19.5867 37.937 19.4087 37.806C18.9637 37.479 18.8667 36.853 19.1937 36.408C19.2707 36.303 21.1097 34 23.9997 34C25.9367 34 26.0477 35.375 26.0777 35.888L26.0847 35.997C26.5707 35.963 27.0757 35.643 27.6547 35.274C28.6157 34.664 29.8077 33.903 31.4047 34.312C32.2757 34.535 32.4117 35.343 32.4637 35.648C32.4767 35.724 32.4957 35.838 32.5127 35.874C32.5197 35.874 32.6587 35.965 33.0897 36.004C33.9097 36.079 34.8107 35.725 35.7647 35.351C36.7527 34.963 37.7747 34.563 38.8757 34.563C42.2647 34.563 43.6427 36.198 43.7887 36.384C44.1287 36.819 44.0527 37.447 43.6177 37.787C43.4427 37.924 43.2367 37.994 43.0307 38C42.7237 38.009 42.4177 37.877 42.2137 37.616C42.1897 37.589 41.2837 36.562 38.8767 36.562C38.1537 36.562 37.3487 36.877 36.4957 37.211C35.4867 37.607 34.0617 38 32.9997 38V38Z" fill="#8899A6"/>
</svg>
