<svg width="128" height="128" viewBox="0 0 128 128" fill="none" xmlns="http://www.w3.org/2000/svg">
<path d="M81.7377 45.6982C87.9712 45.6982 93.9494 48.1744 98.3571 52.5821C102.765 56.9899 105.241 62.968 105.241 69.2015V96.6221H89.5722V69.2015C89.5722 67.1237 88.7468 65.131 87.2775 63.6617C85.8083 62.1925 83.8155 61.3671 81.7377 61.3671C79.6599 61.3671 77.6672 62.1925 76.1979 63.6617C74.7287 65.131 73.9033 67.1237 73.9033 69.2015V96.6221H58.2344V69.2015C58.2344 62.968 60.7106 56.9899 65.1183 52.5821C69.5261 48.1744 75.5042 45.6982 81.7377 45.6982V45.6982Z" fill="black"/>
<path d="M42.5634 49.6154H26.8945V96.6221H42.5634V49.6154Z" fill="black"/>
<path d="M34.729 37.8637C39.0558 37.8637 42.5634 34.3561 42.5634 30.0293C42.5634 25.7024 39.0558 22.1948 34.729 22.1948C30.4021 22.1948 26.8945 25.7024 26.8945 30.0293C26.8945 34.3561 30.4021 37.8637 34.729 37.8637Z" fill="black"/>
</svg>
