<svg width="64" height="64" viewBox="0 0 64 64" fill="none" xmlns="http://www.w3.org/2000/svg">
<path d="M46 50L44 48L42 50L40 48L38 50L36 48L34 50L32 48L30 50L28 48L26 50L24 48L22 50L20 48L18 50V14L20 16L21.958 14L24 16L26.042 14L28 16L30.042 14L32 16L34.083 14L36 16L38.125 14L40 16L41.958 14L44 16L46 14V50Z" fill="#CCD6DD"/>
<path d="M33 31H23C22.45 31 22 30.55 22 30C22 29.45 22.45 29 23 29H33C33.55 29 34 29.45 34 30C34 30.55 33.55 31 33 31ZM41 31H37C36.45 31 36 30.55 36 30C36 29.45 36.45 29 37 29H41C41.55 29 42 29.45 42 30C42 30.55 41.55 31 41 31ZM33 35H23C22.45 35 22 34.55 22 34C22 33.45 22.45 33 23 33H33C33.55 33 34 33.45 34 34C34 34.55 33.55 35 33 35ZM41 35H37C36.45 35 36 34.55 36 34C36 33.45 36.45 33 37 33H41C41.55 33 42 33.45 42 34C42 34.55 41.55 35 41 35ZM41 41H23C22.45 41 22 40.55 22 40C22 39.45 22.45 39 23 39H41C41.55 39 42 39.45 42 40C42 40.55 41.55 41 41 41ZM41 45H37C36.45 45 36 44.55 36 44C36 43.45 36.45 43 37 43H41C41.55 43 42 43.45 42 44C42 44.55 41.55 45 41 45Z" fill="#99AAB5"/>
<path d="M32 26C34.2091 26 36 24.2091 36 22C36 19.7909 34.2091 18 32 18C29.7909 18 28 19.7909 28 22C28 24.2091 29.7909 26 32 26Z" fill="#99AAB5"/>
</svg>
