<svg width="128" height="128" viewBox="0 0 128 128" fill="none" xmlns="http://www.w3.org/2000/svg">
<path fill-rule="evenodd" clip-rule="evenodd" d="M94.8786 33.1199H33.1185C29.9131 33.1199 27.1476 35.0998 25.9846 37.897C26.3805 37.9756 26.7669 38.1359 27.1188 38.3822L63.9985 64.198L100.878 38.3822C101.23 38.1359 101.617 37.9756 102.012 37.897C100.849 35.0998 98.084 33.1199 94.8786 33.1199ZM102.599 44.5019L65.7189 70.3177C64.686 71.0408 63.3111 71.0408 62.2781 70.3177L25.3984 44.5019V87.1601C25.3984 91.4061 28.8724 94.8801 33.1185 94.8801H94.8786C99.1246 94.8801 102.599 91.4061 102.599 87.1601V44.5019Z" fill="black"/>
</svg>
