<svg width="128" height="128" viewBox="0 0 128 128" fill="none" xmlns="http://www.w3.org/2000/svg">
<path d="M100.848 30.8725C99.5412 29.7892 97.4892 29.6342 95.3676 30.4671H95.3641C93.1327 31.3426 32.2004 56.8975 29.7199 57.9416C29.2687 58.0949 25.3285 59.5324 25.7344 62.7344C26.0967 65.6214 29.2635 66.817 29.6502 66.955L45.1411 72.1412C46.1688 75.4863 49.9575 87.8278 50.7953 90.4644C51.3179 92.108 52.1697 94.2676 53.6625 94.7122C54.9725 95.2061 56.2754 94.7548 57.1185 94.1075L66.5893 85.5183L81.8782 97.1767L82.2422 97.3896C83.2804 97.8393 84.275 98.0641 85.2244 98.0641C85.9577 98.0641 86.6615 97.9295 87.3338 97.6604C89.6245 96.7407 90.5407 94.6066 90.6365 94.3647L102.057 36.3244C102.753 33.2246 101.785 31.6474 100.848 30.8725ZM58.803 74.2158L53.5772 87.8414L48.3514 70.8093L88.4156 41.8548L58.803 74.2158Z" fill="black"/>
</svg>
