<svg width="74" height="73" viewBox="0 0 74 73" fill="none" xmlns="http://www.w3.org/2000/svg">
<mask id="path-1-inside-1_1174_20706" fill="white">
<path fill-rule="evenodd" clip-rule="evenodd" d="M73.7178 72.4368L24.1006 72.4368L0.717766 72.4368L0.717768 49.3744L0.717772 0.437318L24.1006 0.43732L24.1006 32.9111L57.0287 0.43727L73.7178 0.436775L73.7178 16.5801L40.4722 49.3744L73.7178 49.3744L73.7178 72.4368Z"/>
</mask>
<path d="M73.7178 72.4368L73.7178 118.437L119.718 118.437L119.718 72.4368L73.7178 72.4368ZM0.717766 72.4368L-45.2822 72.4368L-45.2822 118.437L0.717762 118.437L0.717766 72.4368ZM0.717772 0.437318L0.717776 -45.5627L-45.2822 -45.5627L-45.2822 0.437314L0.717772 0.437318ZM24.1006 0.43732L70.1006 0.43733L70.1006 -45.5627L24.1006 -45.5627L24.1006 0.43732ZM24.1006 32.9111L-21.8994 32.9111L-21.8994 142.883L56.4008 65.6631L24.1006 32.9111ZM57.0287 0.43727L57.0273 -45.5627L38.1611 -45.5622L24.7284 -32.3148L57.0287 0.43727ZM73.7178 0.436775L119.718 0.436779L119.718 -45.5646L73.7164 -45.5632L73.7178 0.436775ZM73.7178 16.5801L106.022 49.3284L119.718 35.8182L119.718 16.5801L73.7178 16.5801ZM40.4722 49.3744L8.16828 16.6261L-71.6634 95.3744L40.4722 95.3744L40.4722 49.3744ZM73.7178 49.3744L119.718 49.3745L119.718 3.37445L73.7178 3.37445L73.7178 49.3744ZM24.1006 118.437L73.7178 118.437L73.7178 26.4368L24.1006 26.4368L24.1006 118.437ZM0.717762 118.437L24.1006 118.437L24.1006 26.4368L0.71777 26.4368L0.717762 118.437ZM-45.2822 49.3744L-45.2822 72.4368L46.7178 72.4368L46.7178 49.3744L-45.2822 49.3744ZM-45.2822 0.437314L-45.2822 49.3744L46.7178 49.3744L46.7178 0.437322L-45.2822 0.437314ZM24.1006 -45.5627L0.717776 -45.5627L0.717768 46.4373L24.1006 46.4373L24.1006 -45.5627ZM70.1006 32.9111L70.1006 0.43733L-21.8994 0.437311L-21.8994 32.9111L70.1006 32.9111ZM56.4008 65.6631L89.3289 33.1893L24.7284 -32.3148L-8.19965 0.159102L56.4008 65.6631ZM57.03 46.4373L73.7191 46.4368L73.7164 -45.5632L57.0273 -45.5627L57.03 46.4373ZM27.7178 0.436771L27.7178 16.5801L119.718 16.5801L119.718 0.436779L27.7178 0.436771ZM41.4138 -16.1683L8.16828 16.6261L72.7762 82.1228L106.022 49.3284L41.4138 -16.1683ZM73.7178 3.37445L40.4722 3.37444L40.4722 95.3744L73.7178 95.3744L73.7178 3.37445ZM119.718 72.4368L119.718 49.3745L27.7178 49.3744L27.7178 72.4368L119.718 72.4368Z" fill="white" mask="url(#path-1-inside-1_1174_20706)"/>
</svg>
