<svg width="131" height="15" viewBox="0 0 131 15" fill="none" xmlns="http://www.w3.org/2000/svg">
<path d="M12.546 7.214V14H11.466L11.034 12.398C10.002 13.67 8.622 14.306 6.894 14.306C5.07 14.306 3.594 13.7 2.466 12.488C1.35 11.264 0.792 9.668 0.792 7.7C0.792 5.744 1.344 4.124 2.448 2.84C3.564 1.556 5.088 0.913999 7.02 0.913999C7.908 0.913999 8.736 1.07 9.504 1.382C10.272 1.682 10.926 2.162 11.466 2.822C12.006 3.47 12.312 4.238 12.384 5.126H10.728C10.596 4.286 10.188 3.614 9.504 3.11C8.832 2.594 8.004 2.336 7.02 2.336C5.628 2.336 4.524 2.816 3.708 3.776C2.892 4.724 2.484 6.014 2.484 7.646C2.484 9.254 2.892 10.532 3.708 11.48C4.524 12.428 5.622 12.902 7.002 12.902C8.298 12.902 9.282 12.512 9.954 11.732C10.638 10.94 10.998 9.896 11.034 8.6H6.93V7.214H12.546ZM23.5942 12.524V14H15.0982V1.184H16.7902V12.524H23.5942ZM33.9562 1.184V2.66H26.7742V6.674H33.4882V8.096H26.7742V12.524H34.0462V14H25.0822V1.184H33.9562ZM36.0861 1.184H41.5581C42.7341 1.184 43.7061 1.442 44.4741 1.958C45.2541 2.474 45.6441 3.284 45.6441 4.388C45.6441 5.024 45.4701 5.594 45.1221 6.098C44.7861 6.59 44.3301 6.938 43.7541 7.142C44.5461 7.322 45.1521 7.694 45.5721 8.258C46.0041 8.822 46.2201 9.53 46.2201 10.382C46.2201 12.794 44.6001 14 41.3601 14H36.0861V1.184ZM37.7421 2.624V6.674H40.7841C41.1321 6.674 41.4261 6.668 41.6661 6.656C41.9181 6.632 42.2001 6.584 42.5121 6.512C42.8241 6.44 43.0701 6.338 43.2501 6.206C43.4421 6.062 43.6041 5.858 43.7361 5.594C43.8801 5.33 43.9521 5.012 43.9521 4.64C43.9521 4.268 43.8921 3.956 43.7721 3.704C43.6521 3.44 43.5081 3.242 43.3401 3.11C43.1721 2.966 42.9381 2.858 42.6381 2.786C42.3501 2.714 42.0861 2.672 41.8461 2.66C41.6181 2.636 41.3181 2.624 40.9461 2.624H37.7421ZM37.7421 8.006V12.578H41.1261C41.5461 12.578 41.8881 12.572 42.1521 12.56C42.4161 12.536 42.7101 12.482 43.0341 12.398C43.3701 12.314 43.6341 12.194 43.8261 12.038C44.0181 11.87 44.1801 11.636 44.3121 11.336C44.4441 11.024 44.5101 10.652 44.5101 10.22C44.5101 9.86 44.4621 9.548 44.3661 9.284C44.2821 9.02 44.1321 8.81 43.9161 8.654C43.7121 8.498 43.5141 8.372 43.3221 8.276C43.1421 8.18 42.8781 8.114 42.5301 8.078C42.1821 8.042 41.9121 8.024 41.7201 8.024C41.5281 8.012 41.2341 8.006 40.8381 8.006H37.7421ZM62.4901 4.946H60.8521C60.6721 3.206 59.6101 2.336 57.6661 2.336C56.7421 2.336 56.0281 2.522 55.5241 2.894C55.0201 3.266 54.7681 3.788 54.7681 4.46C54.7681 4.7 54.8041 4.91 54.8761 5.09C54.9481 5.27 55.0681 5.432 55.2361 5.576C55.4161 5.708 55.5841 5.822 55.7401 5.918C55.8961 6.014 56.1421 6.11 56.4781 6.206C56.8141 6.302 57.0841 6.374 57.2881 6.422C57.4921 6.458 57.8101 6.524 58.2421 6.62C58.7701 6.728 59.2081 6.83 59.5561 6.926C59.9041 7.01 60.3181 7.154 60.7981 7.358C61.2781 7.562 61.6561 7.79 61.9321 8.042C62.2201 8.282 62.4661 8.606 62.6701 9.014C62.8861 9.422 62.9941 9.884 62.9941 10.4C62.9941 11.3 62.7421 12.056 62.2381 12.668C61.7341 13.268 61.1221 13.688 60.4021 13.928C59.6821 14.168 58.8841 14.288 58.0081 14.288C56.4001 14.288 55.1101 13.91 54.1381 13.154C53.1781 12.386 52.6981 11.258 52.6981 9.77H54.3361C54.3721 10.862 54.7381 11.66 55.4341 12.164C56.1301 12.656 57.0361 12.902 58.1521 12.902C59.0281 12.902 59.7781 12.722 60.4021 12.362C61.0261 11.99 61.3381 11.39 61.3381 10.562C61.3381 10.178 61.2541 9.854 61.0861 9.59C60.9181 9.314 60.6541 9.092 60.2941 8.924C59.9341 8.744 59.5741 8.6 59.2141 8.492C58.8541 8.384 58.3801 8.264 57.7921 8.132C57.7081 8.12 57.6481 8.108 57.6121 8.096C56.2921 7.796 55.4281 7.556 55.0201 7.376C53.7721 6.836 53.1481 5.906 53.1481 4.586C53.1481 3.362 53.5981 2.45 54.4981 1.85C55.4101 1.238 56.5081 0.932 57.7921 0.932C59.1961 0.932 60.3181 1.268 61.1581 1.94C61.9981 2.612 62.4421 3.614 62.4901 4.946ZM75.242 1.184V14H73.55V8.006H66.782V14H65.09V1.184H66.782V6.53H73.55V1.184H75.242ZM79.8442 1.184V14H78.1522V1.184H79.8442ZM91.8104 4.946H90.1724C89.9924 3.206 88.9304 2.336 86.9864 2.336C86.0624 2.336 85.3484 2.522 84.8444 2.894C84.3404 3.266 84.0884 3.788 84.0884 4.46C84.0884 4.7 84.1244 4.91 84.1964 5.09C84.2684 5.27 84.3884 5.432 84.5564 5.576C84.7364 5.708 84.9044 5.822 85.0604 5.918C85.2164 6.014 85.4624 6.11 85.7984 6.206C86.1344 6.302 86.4044 6.374 86.6084 6.422C86.8124 6.458 87.1304 6.524 87.5624 6.62C88.0904 6.728 88.5284 6.83 88.8764 6.926C89.2244 7.01 89.6384 7.154 90.1184 7.358C90.5984 7.562 90.9764 7.79 91.2524 8.042C91.5404 8.282 91.7864 8.606 91.9904 9.014C92.2064 9.422 92.3144 9.884 92.3144 10.4C92.3144 11.3 92.0624 12.056 91.5584 12.668C91.0544 13.268 90.4424 13.688 89.7224 13.928C89.0024 14.168 88.2044 14.288 87.3284 14.288C85.7204 14.288 84.4304 13.91 83.4584 13.154C82.4984 12.386 82.0184 11.258 82.0184 9.77H83.6564C83.6924 10.862 84.0584 11.66 84.7544 12.164C85.4504 12.656 86.3564 12.902 87.4724 12.902C88.3484 12.902 89.0984 12.722 89.7224 12.362C90.3464 11.99 90.6584 11.39 90.6584 10.562C90.6584 10.178 90.5744 9.854 90.4064 9.59C90.2384 9.314 89.9744 9.092 89.6144 8.924C89.2544 8.744 88.8944 8.6 88.5344 8.492C88.1744 8.384 87.7004 8.264 87.1124 8.132C87.0284 8.12 86.9684 8.108 86.9324 8.096C85.6124 7.796 84.7484 7.556 84.3404 7.376C83.0924 6.836 82.4684 5.906 82.4684 4.586C82.4684 3.362 82.9184 2.45 83.8184 1.85C84.7304 1.238 85.8284 0.932 87.1124 0.932C88.5164 0.932 89.6384 1.268 90.4784 1.94C91.3184 2.612 91.7624 3.614 91.8104 4.946ZM104.562 1.184V14H102.87V8.006H96.1023V14H94.4103V1.184H96.1023V6.53H102.87V1.184H104.562ZM112.801 0.877999C114.745 0.877999 116.257 1.49 117.337 2.714C118.417 3.926 118.957 5.516 118.957 7.484C118.957 9.464 118.423 11.096 117.355 12.38C116.287 13.664 114.775 14.306 112.819 14.306C111.823 14.306 110.929 14.126 110.137 13.766C109.345 13.406 108.697 12.908 108.193 12.272C107.701 11.636 107.323 10.91 107.059 10.094C106.807 9.278 106.681 8.396 106.681 7.448C106.681 5.444 107.233 3.848 108.337 2.66C109.453 1.472 110.941 0.877999 112.801 0.877999ZM112.801 2.354C111.373 2.354 110.275 2.858 109.507 3.866C108.751 4.862 108.373 6.098 108.373 7.574C108.373 9.182 108.775 10.466 109.579 11.426C110.395 12.374 111.481 12.848 112.837 12.848C114.181 12.848 115.255 12.368 116.059 11.408C116.863 10.448 117.265 9.17 117.265 7.574C117.265 5.99 116.857 4.724 116.041 3.776C115.237 2.828 114.157 2.354 112.801 2.354ZM119.618 1.184H121.49L125.18 12.344L128.906 1.184H130.688L126.116 14H124.172L119.618 1.184Z" fill="black"/>
</svg>
