<svg width="141" height="141" viewBox="0 0 141 141" fill="none" xmlns="http://www.w3.org/2000/svg">
<g clip-path="url(#clip0_1581_16413)">
<rect width="141" height="141" rx="70.5" fill="#E5E5E5"/>
<path d="M29.4735 116.681C26.2722 120.284 26.5723 125.852 30.5435 128.584C37.9847 133.703 46.3636 137.36 55.2339 139.327C66.9539 141.927 79.1436 141.491 90.6478 138.06C102.152 134.629 112.589 128.317 120.971 119.723C129.353 111.129 135.401 100.536 138.543 88.9499C141.685 77.3635 141.816 65.1667 138.923 53.5154C136.031 41.8642 130.212 31.1444 122.017 22.3721C113.821 13.5998 103.522 7.06551 92.0938 3.38848C83.4446 0.605502 74.366 -0.470974 65.3582 0.187732C60.551 0.539269 57.4794 5.19279 58.4218 9.91982V9.91982C59.3643 14.6469 63.9714 17.6381 68.789 17.4826C74.8541 17.2869 80.9299 18.1327 86.7474 20.0046C95.3459 22.7712 103.095 27.6877 109.262 34.2881C115.428 40.8884 119.806 48.9541 121.983 57.7206C124.159 66.4871 124.06 75.6641 121.696 84.3819C119.332 93.0997 114.782 101.069 108.475 107.536C102.169 114.002 94.3153 118.751 85.6594 121.333C77.0036 123.914 67.8319 124.242 59.0136 122.286C53.0473 120.963 47.3765 118.624 42.2411 115.391C38.1619 112.823 32.6748 113.077 29.4735 116.681V116.681Z" fill="#7B65FF"/>
<path d="M67.4839 12H66.6023V6.36187C66.6023 6.14781 66.6023 5.96459 66.6023 5.81221C66.6059 5.6562 66.6095 5.5147 66.6131 5.38772C66.6204 5.25711 66.6295 5.12468 66.6404 4.99044C66.5279 5.10654 66.4227 5.20631 66.3247 5.28976C66.2267 5.36958 66.1052 5.46935 65.9601 5.58908L65.0512 6.31834L64.5778 5.70337L66.7329 4.04349H67.4839V12ZM75.7125 12H70.4989V11.2435L72.6268 9.08298C73.0223 8.68388 73.3542 8.32832 73.6227 8.0163C73.8948 7.70428 74.1016 7.39771 74.2431 7.09657C74.3846 6.79181 74.4554 6.45802 74.4554 6.09521C74.4554 5.64532 74.3211 5.30246 74.0526 5.06663C73.7878 4.82717 73.4377 4.70744 73.0023 4.70744C72.6213 4.70744 72.2839 4.77275 71.99 4.90336C71.6962 5.03398 71.395 5.21901 71.0866 5.45847L70.6023 4.84894C70.8127 4.67116 71.0413 4.51334 71.288 4.37547C71.5383 4.2376 71.805 4.12875 72.088 4.04894C72.3746 3.96912 72.6794 3.92921 73.0023 3.92921C73.4921 3.92921 73.9148 4.01447 74.2703 4.18499C74.6259 4.35551 74.8998 4.5986 75.0921 4.91425C75.288 5.22989 75.386 5.60541 75.386 6.04078C75.386 6.46165 75.3025 6.85349 75.1356 7.2163C74.9687 7.57549 74.7347 7.93286 74.4336 8.28841C74.1325 8.64034 73.7805 9.01404 73.3778 9.40951L71.6472 11.1347V11.1728H75.7125V12Z" fill="#F5F5F5"/>
<path d="M103.28 21.6938H102.399V16.0557C102.399 15.8417 102.399 15.6584 102.399 15.5061C102.402 15.35 102.406 15.2086 102.41 15.0816C102.417 14.951 102.426 14.8185 102.437 14.6843C102.324 14.8004 102.219 14.9002 102.121 14.9836C102.023 15.0634 101.902 15.1632 101.757 15.2829L100.848 16.0122L100.374 15.3972L102.529 13.7373H103.28V21.6938Z" fill="#F5F5F5"/>
<path d="M127.162 45.4875H121.948V44.7311L124.076 42.5705C124.472 42.1714 124.804 41.8159 125.072 41.5039C125.344 41.1918 125.551 40.8853 125.693 40.5841C125.834 40.2794 125.905 39.9456 125.905 39.5828C125.905 39.1329 125.771 38.79 125.502 38.5542C125.237 38.3147 124.887 38.195 124.452 38.195C124.071 38.195 123.733 38.2603 123.44 38.3909C123.146 38.5215 122.845 38.7066 122.536 38.946L122.052 38.3365C122.262 38.1587 122.491 38.0009 122.738 37.863C122.988 37.7251 123.255 37.6163 123.538 37.5365C123.824 37.4567 124.129 37.4168 124.452 37.4168C124.942 37.4168 125.364 37.502 125.72 37.6725C126.075 37.8431 126.349 38.0861 126.542 38.4018C126.738 38.7174 126.836 39.093 126.836 39.5283C126.836 39.9492 126.752 40.341 126.585 40.7038C126.418 41.063 126.184 41.4204 125.883 41.776C125.582 42.1279 125.23 42.5016 124.827 42.8971L123.097 44.6222V44.6603H127.162V45.4875Z" fill="#F5F5F5"/>
<path d="M124.915 105.33H123.723V107.175H122.841V105.33H118.994V104.568L122.781 99.175H123.723V104.514H124.915V105.33ZM122.841 104.514V101.912C122.841 101.713 122.843 101.533 122.847 101.374C122.85 101.21 122.856 101.06 122.863 100.922C122.87 100.78 122.876 100.646 122.879 100.519C122.887 100.392 122.892 100.267 122.896 100.144H122.852C122.783 100.289 122.703 100.443 122.613 100.606C122.526 100.766 122.437 100.909 122.346 101.036L119.892 104.514H122.841Z" fill="#F5F5F5"/>
<path d="M100.668 123.46C101.208 123.46 101.678 123.552 102.077 123.737C102.476 123.919 102.785 124.183 103.003 124.532C103.224 124.88 103.334 125.303 103.334 125.8C103.334 126.344 103.217 126.814 102.981 127.209C102.745 127.601 102.406 127.904 101.963 128.118C101.52 128.329 100.991 128.434 100.374 128.434C99.9603 128.434 99.5757 128.398 99.2202 128.325C98.8646 128.252 98.5653 128.144 98.3222 127.998V127.139C98.5871 127.298 98.9082 127.425 99.2855 127.52C99.6628 127.614 100.029 127.661 100.385 127.661C100.788 127.661 101.139 127.598 101.441 127.471C101.745 127.34 101.981 127.144 102.148 126.883C102.319 126.618 102.404 126.286 102.404 125.887C102.404 125.357 102.241 124.949 101.914 124.662C101.591 124.372 101.08 124.227 100.379 124.227C100.154 124.227 99.9077 124.245 99.6392 124.281C99.3707 124.318 99.1494 124.358 98.9753 124.401L98.5181 124.102L98.8229 120.368H102.779V121.196H99.5957L99.3943 123.596C99.5322 123.567 99.71 123.538 99.9277 123.509C100.145 123.476 100.392 123.46 100.668 123.46Z" fill="#F5F5F5"/>
<path d="M35.7329 128.325L38.9982 121.196H34.6607V120.368H39.9669V121.065L36.7233 128.325H35.7329Z" fill="#F5F5F5"/>
<path d="M21.4696 94.698C21.9304 94.698 22.3385 94.7706 22.6941 94.9157C23.0496 95.0608 23.3272 95.2749 23.5267 95.5579C23.7299 95.8372 23.8315 96.1819 23.8315 96.5919C23.8315 96.9148 23.7608 97.1978 23.6193 97.4409C23.4814 97.6803 23.2945 97.8908 23.0587 98.0722C22.8229 98.25 22.5617 98.4096 22.275 98.5511C22.6161 98.7071 22.9227 98.8831 23.1948 99.079C23.4705 99.2749 23.6882 99.5053 23.8478 99.7701C24.0075 100.035 24.0873 100.349 24.0873 100.712C24.0873 101.158 23.9784 101.544 23.7608 101.871C23.5467 102.194 23.2456 102.442 22.8573 102.616C22.4691 102.791 22.0138 102.878 21.4914 102.878C20.929 102.878 20.4501 102.794 20.0546 102.627C19.6628 102.457 19.3635 102.214 19.1566 101.898C18.9535 101.579 18.8519 101.196 18.8519 100.75C18.8519 100.383 18.9299 100.066 19.0859 99.7974C19.2419 99.5252 19.4487 99.2912 19.7063 99.0953C19.9639 98.8994 20.2451 98.7343 20.5499 98.6001C20.285 98.4549 20.0419 98.2899 19.8206 98.1048C19.6029 97.9198 19.4288 97.7039 19.2981 97.4572C19.1712 97.2069 19.1077 96.9166 19.1077 96.5865C19.1077 96.1837 19.2093 95.8427 19.4124 95.5633C19.6192 95.2803 19.9004 95.0663 20.256 94.9211C20.6152 94.7724 21.0197 94.698 21.4696 94.698ZM19.739 100.755C19.739 101.162 19.8823 101.497 20.1689 101.762C20.4555 102.023 20.8891 102.154 21.4696 102.154C22.0211 102.154 22.4474 102.023 22.7485 101.762C23.0496 101.497 23.2002 101.151 23.2002 100.723C23.2002 100.458 23.1313 100.225 22.9934 100.026C22.8555 99.8228 22.6596 99.6413 22.4056 99.4817C22.1517 99.3221 21.8524 99.1769 21.5077 99.0463L21.3118 98.9756C20.978 99.1134 20.6932 99.2676 20.4573 99.4382C20.2251 99.6051 20.0474 99.7955 19.924 100.01C19.8006 100.224 19.739 100.472 19.739 100.755ZM21.4587 95.4381C21.0306 95.4381 20.6805 95.5415 20.4084 95.7484C20.1362 95.9515 20.0002 96.2454 20.0002 96.63C20.0002 96.9057 20.0655 97.1397 20.1961 97.332C20.3303 97.5207 20.5118 97.684 20.7403 97.8218C20.9689 97.9561 21.2247 98.0812 21.5077 98.1973C21.7834 98.0812 22.0283 97.9543 22.2424 97.8164C22.4564 97.6749 22.6251 97.508 22.7485 97.3157C22.8719 97.1234 22.9335 96.893 22.9335 96.6245C22.9335 96.24 22.7975 95.9461 22.5254 95.7429C22.2569 95.5397 21.9013 95.4381 21.4587 95.4381Z" fill="black"/>
<path d="M14.6089 41.9624H13.7273V36.3243C13.7273 36.1102 13.7273 35.927 13.7273 35.7746C13.7309 35.6186 13.7345 35.4771 13.7381 35.3501C13.7454 35.2195 13.7545 35.0871 13.7654 34.9528C13.6529 35.0689 13.5477 35.1687 13.4497 35.2522C13.3517 35.332 13.2302 35.4318 13.0851 35.5515L12.1762 36.2807L11.7028 35.6658L13.8579 34.0059H14.6089V41.9624ZM22.8811 37.9733C22.8811 38.6191 22.8321 39.1959 22.7341 39.7039C22.6362 40.2118 22.482 40.6418 22.2715 40.9937C22.0611 41.3456 21.789 41.6141 21.4552 41.7991C21.1214 41.9805 20.7205 42.0712 20.2525 42.0712C19.6611 42.0712 19.1713 41.9098 18.7831 41.5869C18.3985 41.264 18.1101 40.7978 17.9178 40.1882C17.7291 39.5751 17.6348 38.8368 17.6348 37.9733C17.6348 37.1243 17.72 36.395 17.8905 35.7855C18.0647 35.1723 18.3441 34.7025 18.7286 34.376C19.1132 34.0458 19.6212 33.8807 20.2525 33.8807C20.8511 33.8807 21.3445 34.044 21.7327 34.3705C22.121 34.6934 22.4094 35.1615 22.5981 35.7746C22.7867 36.3841 22.8811 37.117 22.8811 37.9733ZM18.5436 37.9733C18.5436 38.7134 18.5999 39.3302 18.7123 39.8236C18.8248 40.317 19.0062 40.6871 19.2565 40.9338C19.5105 41.1769 19.8425 41.2985 20.2525 41.2985C20.6624 41.2985 20.9926 41.1769 21.2429 40.9338C21.4969 40.6907 21.6801 40.3225 21.7926 39.8291C21.9087 39.3356 21.9668 38.717 21.9668 37.9733C21.9668 37.244 21.9105 36.6345 21.7981 36.1447C21.6856 35.6513 21.5042 35.2812 21.2538 35.0345C21.0035 34.7841 20.6697 34.659 20.2525 34.659C19.8352 34.659 19.5014 34.7841 19.2511 35.0345C19.0008 35.2812 18.8194 35.6513 18.7069 36.1447C18.598 36.6345 18.5436 37.244 18.5436 37.9733Z" fill="black"/>
<path d="M38.4038 20.8125H37.5222V15.1744C37.5222 14.9603 37.5222 14.7771 37.5222 14.6247C37.5258 14.4687 37.5294 14.3272 37.5331 14.2002C37.5403 14.0696 37.5494 13.9372 37.5603 13.8029C37.4478 13.919 37.3426 14.0188 37.2446 14.1023C37.1467 14.1821 37.0251 14.2819 36.88 14.4016L35.9712 15.1308L35.4977 14.5159L37.6528 12.856H38.4038V20.8125ZM44.7821 20.8125H43.9004V15.1744C43.9004 14.9603 43.9004 14.7771 43.9004 14.6247C43.9041 14.4687 43.9077 14.3272 43.9113 14.2002C43.9186 14.0696 43.9277 13.9372 43.9385 13.8029C43.8261 13.919 43.7209 14.0188 43.6229 14.1023C43.5249 14.1821 43.4034 14.2819 43.2583 14.4016L42.3494 15.1308L41.8759 14.5159L44.0311 12.856H44.7821V20.8125Z" fill="black"/>
<path d="M134.8 68.4681C134.8 68.8237 134.731 69.1321 134.593 69.3933C134.455 69.6545 134.263 69.8686 134.016 70.0355C133.769 70.1988 133.479 70.313 133.145 70.3783V70.4219C133.777 70.5017 134.25 70.7049 134.566 71.0314C134.885 71.3579 135.045 71.7861 135.045 72.3158C135.045 72.7765 134.936 73.1847 134.718 73.5403C134.504 73.8958 134.174 74.1752 133.728 74.3784C133.285 74.5779 132.717 74.6777 132.024 74.6777C131.603 74.6777 131.213 74.6432 130.854 74.5743C130.499 74.509 130.158 74.3983 129.831 74.2423V73.3933C130.161 73.5566 130.52 73.6854 130.909 73.7797C131.297 73.8704 131.672 73.9158 132.035 73.9158C132.761 73.9158 133.285 73.7725 133.608 73.4858C133.931 73.1956 134.092 72.8001 134.092 72.2994C134.092 71.9548 134.002 71.6772 133.82 71.4668C133.642 71.2527 133.385 71.0967 133.047 70.9988C132.714 70.8972 132.311 70.8464 131.839 70.8464H131.045V70.0736H131.845C132.276 70.0736 132.643 70.0101 132.944 69.8831C133.245 69.7561 133.474 69.5783 133.63 69.3498C133.789 69.1176 133.869 68.8436 133.869 68.528C133.869 68.1253 133.735 67.8151 133.466 67.5974C133.198 67.3761 132.833 67.2654 132.373 67.2654C132.09 67.2654 131.832 67.2944 131.6 67.3525C131.368 67.4105 131.15 67.4904 130.947 67.5919C130.744 67.6935 130.54 67.8114 130.337 67.9457L129.88 67.3253C130.17 67.1003 130.524 66.9062 130.941 66.743C131.359 66.5797 131.832 66.4981 132.362 66.4981C133.174 66.4981 133.784 66.6831 134.19 67.0532C134.597 67.4232 134.8 67.8949 134.8 68.4681Z" fill="#F5F5F5"/>
<path d="M66.5105 133.736C66.5105 133.257 66.5432 132.789 66.6085 132.332C66.6774 131.875 66.7917 131.45 66.9513 131.059C67.111 130.663 67.3287 130.317 67.6044 130.019C67.8801 129.722 68.223 129.489 68.633 129.322C69.0466 129.152 69.5418 129.067 70.1187 129.067C70.282 129.067 70.4579 129.076 70.6466 129.094C70.8353 129.108 70.9913 129.134 71.1146 129.17V129.948C70.9804 129.901 70.8262 129.867 70.652 129.845C70.4815 129.823 70.3092 129.812 70.135 129.812C69.4602 129.812 68.9287 129.959 68.5405 130.253C68.1559 130.547 67.8783 130.946 67.7078 131.45C67.5373 131.951 67.4393 132.515 67.4139 133.143H67.4738C67.5863 132.961 67.7296 132.798 67.9037 132.653C68.0779 132.504 68.2883 132.386 68.535 132.299C68.7854 132.212 69.0756 132.169 69.4058 132.169C69.8702 132.169 70.2747 132.263 70.6194 132.452C70.9677 132.64 71.2362 132.914 71.4248 133.273C71.6171 133.633 71.7133 134.068 71.7133 134.58C71.7133 135.127 71.6117 135.601 71.4085 136C71.2053 136.399 70.9151 136.708 70.5378 136.925C70.1641 137.139 69.7178 137.246 69.199 137.246C68.8108 137.246 68.4534 137.172 68.1269 137.023C67.8003 136.874 67.5155 136.653 67.2724 136.359C67.033 136.065 66.8461 135.701 66.7119 135.265C66.5776 134.826 66.5105 134.317 66.5105 133.736ZM69.1881 136.484C69.6815 136.484 70.077 136.327 70.3745 136.011C70.672 135.695 70.8207 135.218 70.8207 134.58C70.8207 134.057 70.6883 133.644 70.4235 133.339C70.1586 133.034 69.7595 132.882 69.2262 132.882C68.8634 132.882 68.5477 132.958 68.2792 133.11C68.0108 133.259 67.8021 133.448 67.6534 133.676C67.5046 133.905 67.4303 134.137 67.4303 134.373C67.4303 134.612 67.4647 134.855 67.5337 135.102C67.6062 135.349 67.7151 135.577 67.8602 135.788C68.0053 135.998 68.1885 136.167 68.4099 136.294C68.6312 136.421 68.8906 136.484 69.1881 136.484Z" fill="#F5F5F5"/>
<path d="M10.8468 70.0028C10.8468 70.4854 10.8123 70.9552 10.7434 71.4124C10.6781 71.8695 10.5638 72.2958 10.4005 72.6913C10.2409 73.0868 10.0232 73.4332 9.74744 73.7307C9.4717 74.0283 9.12522 74.2623 8.70798 74.4328C8.29437 74.5997 7.79913 74.6831 7.22226 74.6831C7.06625 74.6831 6.88847 74.6722 6.68892 74.6505C6.48937 74.6323 6.32611 74.6051 6.19912 74.5688V73.7852C6.33336 73.8323 6.49119 73.8704 6.67259 73.8995C6.854 73.9249 7.03178 73.9376 7.20593 73.9376C7.88439 73.9376 8.41773 73.7924 8.80594 73.5022C9.19415 73.2083 9.47352 72.811 9.64404 72.3103C9.81456 71.806 9.91071 71.24 9.93248 70.6124H9.86717C9.75833 70.7865 9.61501 70.948 9.43724 71.0967C9.26308 71.2418 9.05084 71.3598 8.8005 71.4505C8.55016 71.5375 8.25809 71.5811 7.9243 71.5811C7.46353 71.5811 7.06081 71.4867 6.71613 71.2981C6.37509 71.1094 6.10842 70.8355 5.91613 70.4763C5.72746 70.1171 5.63313 69.6836 5.63313 69.1756C5.63313 68.6278 5.73653 68.1543 5.94334 67.7552C6.15377 67.3525 6.44765 67.0423 6.82498 66.8246C7.2023 66.6069 7.64675 66.4981 8.15832 66.4981C8.55016 66.4981 8.90934 66.5724 9.23587 66.7212C9.56241 66.8699 9.8454 67.0931 10.0849 67.3906C10.3279 67.6845 10.5148 68.0491 10.6454 68.4845C10.7796 68.9198 10.8468 69.426 10.8468 70.0028ZM8.15832 67.2654C7.67577 67.2654 7.28394 67.4232 6.9828 67.7389C6.68529 68.0545 6.53654 68.5298 6.53654 69.1647C6.53654 69.6908 6.66534 70.1062 6.92294 70.411C7.18053 70.7158 7.57781 70.8681 8.11478 70.8681C8.48485 70.8681 8.80413 70.7938 9.07261 70.645C9.34472 70.4963 9.55334 70.3076 9.69846 70.079C9.84721 69.8505 9.92159 69.6164 9.92159 69.377C9.92159 69.1375 9.88531 68.8944 9.81275 68.6477C9.74381 68.401 9.63678 68.1743 9.49166 67.9675C9.34653 67.757 9.16331 67.5883 8.94199 67.4613C8.72068 67.3307 8.45945 67.2654 8.15832 67.2654Z" fill="black"/>
</g>
<defs>
<clipPath id="clip0_1581_16413">
<rect width="141" height="141" rx="70.5" fill="white"/>
</clipPath>
</defs>
</svg>
